<?xml version="1.0" encoding="UTF-8" standalone="no" ?>
<!DOCTYPE svg PUBLIC "-//W3C//DTD SVG 1.1//EN" "http://www.w3.org/Graphics/SVG/1.1/DTD/svg11.dtd">
<svg xmlns="http://www.w3.org/2000/svg" xmlns:xlink="http://www.w3.org/1999/xlink" version="1.1" width="1280" height="1024" viewBox="0 0 1280 1024" xml:space="preserve">
<desc>Created with Fabric.js 5.3.0</desc>
<defs>
</defs>
<g transform="matrix(1 0 0 1 640 512)" id="background-logo"  >
<rect style="stroke: none; stroke-width: 0; stroke-dasharray: none; stroke-linecap: butt; stroke-dashoffset: 0; stroke-linejoin: miter; stroke-miterlimit: 4; fill: rgb(5,16,36); fill-rule: nonzero; opacity: 1;"  paint-order="stroke"  x="-640" y="-512" rx="0" ry="0" width="1280" height="1024" />
</g>
<g transform="matrix(1.9211538461538462 0 0 1.9211538461538462 640 399.99081454124376)" id="logo-logo"  >
<g style=""  paint-order="stroke"   >
		<g transform="matrix(0.0838747091998703 0 0 -0.08387470919987032 0 0)"  >
<linearGradient id="SVGID_2_58724" gradientUnits="userSpaceOnUse" gradientTransform="matrix(2124.95 2646.56 2646.56 -2124.95 2736.9 2784.98)"  x1="0" y1="0" x2="1" y2="0">
<stop offset="0%" style="stop-color:rgb(81,133,230);stop-opacity: 1"/>
<stop offset="100%" style="stop-color:rgb(188,208,245);stop-opacity: 1"/>
</linearGradient>
<path style="stroke: none; stroke-width: 1; stroke-dasharray: none; stroke-linecap: butt; stroke-dashoffset: 0; stroke-linejoin: miter; stroke-miterlimit: 4; fill: url(#SVGID_2_58724); fill-rule: nonzero; opacity: 1;"  paint-order="stroke"  transform=" translate(-3525.1849999999995, -3644.564999999999)" d="M 4408.42 4591.32 L 4532.59 4467.15 L 4295.71 4230.2699999999995 C 4107.17 4509 3788.14 4692.5599999999995 3427.07 4692.5599999999995 C 2849.2000000000003 4692.5599999999995 2379.07 4222.429999999999 2379.07 3644.5599999999995 C 2379.07 3584.4599999999996 2384.4700000000003 3525.6299999999997 2394.27 3468.2999999999993 L 2582.19 3656.2199999999993 C 2588.5 4116.879999999999 2964.94 4489.719999999999 3427.07 4489.719999999999 C 3732.4500000000003 4489.719999999999 4000.48 4326.929999999999 4148.99 4083.5699999999993 L 3649.0299999999997 3583.609999999999 L 3222.7299999999996 4009.939999999999 L 2616.9399999999996 3404.119999999999 L 2250.2 3037.3599999999988 C 2277.3999999999996 2971.569999999999 2310.99 2909.029999999999 2350.41 2850.739999999999 L 2558.45 3058.809999999999 C 2747.02 2780.109999999999 3065.99 2596.569999999999 3427.0699999999997 2596.569999999999 C 4004.93 2596.569999999999 4475.0599999999995 3066.699999999999 4475.0599999999995 3644.5599999999986 C 4475.0599999999995 3704.4999999999986 4469.679999999999 3763.1599999999985 4459.95 3820.319999999999 L 4271.91 3632.3099999999986 C 4265.29 3171.9099999999985 3888.99 2799.4099999999985 3427.0699999999997 2799.4099999999985 C 3121.7099999999996 2799.4099999999985 2853.7099999999996 2962.1699999999983 2705.1699999999996 3205.5099999999984 L 3222.7299999999996 3723.0599999999986 L 3649.0299999999997 3296.7299999999987 L 4237.219999999999 3884.9199999999987 L 4237.329999999999 3884.529999999999 L 4396.049999999999 4043.279999999999 L 4395.909999999999 4043.6499999999987 L 4675.999999999999 4323.729999999999 L 4800.169999999999 4199.559999999999 L 4800.169999999999 4591.319999999999 L 4408.419999999999 4591.319999999999" stroke-linecap="round" />
</g>
</g>
</g>
<g transform="matrix(1.9211538461538462 0 0 1.9211538461538462 639.7881927884616 663.3862559381708)" id="text-logo"  >
<g style=""  paint-order="stroke"   >
		<g transform="matrix(1 0 0 1 0 0)" id="text-logo-path-0"  >
<path style="stroke: none; stroke-width: 0; stroke-dasharray: none; stroke-linecap: butt; stroke-dashoffset: 0; stroke-linejoin: miter; stroke-miterlimit: 4; fill: rgb(112,155,235); fill-rule: nonzero; opacity: 1;"  paint-order="stroke"  transform=" translate(-241.32500000000002, 16.73)" d="M 25.63 -25.77 L 25.63 -33.52 L 0.59 -33.52 L 0.59 -25.77 L 9.06 -25.77 L 9.06 0 L 17.2 0 L 17.2 -25.77 Z M 58.16 0 L 66.88 0 L 54.59 -33.52 L 45.86 -33.52 L 33.61 0 L 42.34 0 L 44.49 -5.83 L 56.01 -5.83 Z M 47.28 -13.57 L 50.27 -21.66 L 53.16 -13.57 Z M 91.29 0.69 C 97.51 0.69 103.54 -2.79 103.54 -9.51 C 103.54 -16.12 98.34 -18.87 92.71 -20.58 C 91.19 -21.07 90.06 -21.51 89.33 -21.85 C 88.3 -22.34 87.56 -22.88 87.56 -24.11 C 87.56 -25.53 89.38 -26.07 90.5 -26.07 C 93.15 -26.07 94.47 -24.89 95.6 -22.59 L 102.56 -26.66 C 100.16 -31.61 95.99 -34.15 90.5 -34.15 C 84.53 -34.15 79.43 -30.28 79.43 -24.11 C 79.43 -17.79 83.94 -15.29 89.38 -13.67 C 91.09 -13.18 92.32 -12.74 93.15 -12.4 C 94.28 -11.96 95.4 -11.37 95.4 -10 C 95.4 -8.18 92.95 -7.3 91.48 -7.3 C 88.3 -7.3 86.09 -8.53 84.87 -11.56 L 78.01 -7.55 C 80.21 -1.91 85.41 0.69 91.29 0.69 Z M 139.45 0 L 149.6 0 L 135.73 -18.28 L 147.98 -33.52 L 137.69 -33.52 L 127.45 -20.92 L 127.45 -33.52 L 119.27 -33.52 L 119.27 0 L 127.45 0 L 127.45 -7.89 L 130.49 -11.71 Z M 213.89 -33.47 L 213.84 -33.52 L 205.06 -18.87 L 196.29 -33.52 L 188.11 -33.52 L 188.11 0 L 196.29 0 L 196.29 -18.57 L 204.09 -5.49 L 206.09 -5.49 L 213.89 -18.57 L 213.89 0 L 222.02 0 L 222.02 -33.52 L 213.89 -33.52 Z M 260.73 0 L 269.45 0 L 257.15 -33.52 L 248.43 -33.52 L 236.18 0 L 244.9 0 L 247.06 -5.83 L 258.57 -5.83 Z M 249.85 -13.57 L 252.84 -21.66 L 255.73 -13.57 Z M 302.62 -33.52 L 302.62 -16.46 L 291.75 -33.52 L 283.56 -33.52 L 283.56 0 L 291.75 0 L 291.75 -19.16 L 304 0 L 310.81 0 L 310.81 -33.52 Z M 349.08 0 L 357.8 0 L 345.5 -33.52 L 336.78 -33.52 L 324.53 0 L 333.25 0 L 335.41 -5.83 L 346.92 -5.83 Z M 338.2 -13.57 L 341.19 -21.66 L 344.08 -13.57 Z M 402.44 -15.39 L 402.44 -18.72 L 383.92 -18.72 L 383.92 -10.98 L 392.54 -10.98 C 390.82 -8.77 388.23 -7.5 385.43 -7.5 C 380.44 -7.5 376.27 -11.66 376.27 -16.61 C 376.27 -21.61 380.49 -25.73 385.43 -25.73 C 388.47 -25.73 390.87 -24.4 392.74 -22 L 399.11 -27.05 C 395.77 -31.36 390.92 -33.86 385.43 -33.86 C 375.83 -33.86 368.14 -26.12 368.14 -16.61 C 368.14 -7.06 375.98 0.69 385.43 0.69 C 394.35 0.69 402.44 -6.27 402.44 -15.39 Z M 425.81 -7.69 L 425.81 -13.28 L 437.47 -13.28 L 437.47 -20.97 L 425.81 -20.97 L 425.81 -25.77 L 438.65 -25.77 L 438.65 -33.52 L 417.63 -33.52 L 417.63 0 L 438.89 0 L 438.89 -7.69 Z M 466.73 -10.78 L 472.75 0 L 482.06 0 L 475.06 -12.64 C 478.29 -14.75 480.15 -18.33 480.15 -22.15 C 480.15 -28.47 475.1 -33.52 468.83 -33.52 L 454.62 -33.52 L 454.62 0 L 462.81 0 L 462.81 -10.78 Z M 462.81 -18.52 L 462.81 -25.77 L 468.83 -25.77 C 470.89 -25.77 472.46 -24.21 472.46 -22.15 C 472.46 -20.19 470.79 -18.52 468.83 -18.52 Z" stroke-linecap="round" />
</g>
</g>
</g>
</svg>